<svg width="28" height="28" viewBox="0 0 28 28" fill="none" xmlns="http://www.w3.org/2000/svg">
<circle cx="14" cy="14" r="14" fill="#00060F"/>
<path d="M16.6242 14.2852H6V12.4135H14.6886V4.01147H16.6242V14.2852Z" fill="#5AFF15"/>
<path d="M19.4117 5.55933L18.8037 6.14891L20.3494 7.64363H16.7153C14.8427 7.64539 13.0473 8.36574 11.7235 9.64649C10.3997 10.9272 9.65568 12.6637 9.65477 14.4745V16.3014C9.19015 16.4048 8.78115 16.67 8.5058 17.0464C8.23044 17.4228 8.108 17.884 8.16182 18.3421C8.21565 18.8002 8.44197 19.2231 8.79762 19.5302C9.15328 19.8372 9.61337 20.0069 10.0901 20.0069C10.5669 20.0069 11.027 19.8372 11.3827 19.5302C11.7383 19.2231 11.9646 18.8002 12.0185 18.3421C12.0723 17.884 11.9499 17.4228 11.6745 17.0464C11.3991 16.67 10.9901 16.4048 10.5255 16.3014V14.4745C10.5292 12.8899 11.1817 11.3712 12.3405 10.2507C13.4992 9.13017 15.0697 8.49913 16.7084 8.49562H20.3494L18.7762 10.0169L19.3842 10.6065L21.9999 8.06215L19.4117 5.55933ZM11.1524 18.1283C11.1524 18.3329 11.0896 18.5329 10.9721 18.7031C10.8545 18.8732 10.6874 19.0059 10.4919 19.0842C10.2964 19.1625 10.0812 19.183 9.87368 19.1431C9.66612 19.1031 9.47547 19.0046 9.32583 18.8599C9.17619 18.7152 9.07429 18.5308 9.033 18.3301C8.99172 18.1294 9.01291 17.9214 9.09389 17.7323C9.17487 17.5432 9.31202 17.3816 9.48797 17.268C9.66393 17.1543 9.8708 17.0936 10.0824 17.0936C10.3661 17.094 10.6379 17.2032 10.8385 17.3971C11.0391 17.5911 11.1519 17.854 11.1524 18.1283Z" fill="#007AFF"/>
<path d="M16.6243 4.01147H14.6887V12.4002H16.6243V4.01147Z" fill="#5AFF15"/>
</svg>
